#N canvas 64 25 1558 997 12;
#X obj 157 39 inlet~;
#X obj 246 19 inlet;
#X obj 246 43 s \$0_waveform;
#X obj 351 19 inlet;
#X obj 351 43 s \$0_volume;
#X obj 444 19 inlet;
#X obj 444 43 s \$0_mute;
#X obj 157 196 phasor~;
#X obj 157 220 expr~ $v1 * 2 - 1;
#X obj 17 154 osc~;
#X obj 318 117 phasor~;
#X obj 318 163 expr~ $v1 * 2 - 1;
#X obj 336 206 == 2;
#X obj 157 280 *~;
#X obj 17 211 *~;
#X obj 318 231 *~;
#X obj 175 254 == 1;
#X obj 35 186 == 0;
#X obj 175 107 r \$0_waveform;
#X obj 271 282 r \$0_mute;
#X obj 175 354 r \$0_volume;
#X obj 157 325 *~;
#X obj 157 379 *~;
#X obj 157 404 outlet~;
#X obj 318 140 expr~ $v1 > 0.5;
#X text 101 479 inlet 1: Frequency signal inlet 2: Waveform type inlet
3: Volume inlet 4: Mute, f 25;
#X obj 271 306 == 0;
#X connect 0 0 9 0;
#X connect 0 0 7 0;
#X connect 0 0 10 0;
#X connect 1 0 2 0;
#X connect 3 0 4 0;
#X connect 5 0 6 0;
#X connect 7 0 8 0;
#X connect 8 0 13 0;
#X connect 9 0 14 0;
#X connect 10 0 24 0;
#X connect 11 0 15 0;
#X connect 12 0 15 1;
#X connect 13 0 21 0;
#X connect 14 0 21 0;
#X connect 15 0 21 0;
#X connect 16 0 13 1;
#X connect 17 0 14 1;
#X connect 18 0 12 0;
#X connect 18 0 16 0;
#X connect 18 0 17 0;
#X connect 19 0 26 0;
#X connect 20 0 22 1;
#X connect 21 0 22 0;
#X connect 22 0 23 0;
#X connect 24 0 11 0;
#X connect 26 0 21 1;
