#N canvas 239 25 1328 997 12;
#X declare -path ./webcam_synth_modules;
#X obj 51 139 get_hand_position;
#X obj 51 77 send_range;
#X obj 51 253 position_to_frequency;
#X obj 321 89 amplitude_modulation~;
#X obj 51 628 oscillators~;
#X obj 51 899 s~ oscillator_1;
#X obj 321 49 r~ oscillator_1;
#X obj 321 845 kb_dynamic_range~;
#X obj 693 435 reverb~;
#X obj 800 849 dac~;
#X obj 692 119 delay~;
#X obj 321 909 s~ synth_1;
#X obj 693 391 r~ synth_1;
#X obj 692 80 r~ synth_1;
#X obj 759 658 r~ synth_1;
#X obj 693 595 s~ reverb_l;
#X obj 839 595 s~ reverb_r;
#X obj 692 334 s~ delay;
#X obj 688 753 r~ reverb_l;
#X obj 851 750 r~ reverb_r;
#X obj 841 659 r~ delay;
#X obj 796 392 r~ delay;
#X obj 190 207 s y_position;
#X obj 51 377 frequency_interpolation;
#X obj 51 457 frequency_modulation~;
#X obj 321 478 kb_filter_envelope~;
#X obj 321 263 kb_amplitude_envelope~;
#X obj 52 41 declare -path ./webcam_synth_modules;
#X connect 0 0 2 0;
#X connect 0 1 22 0;
#X connect 2 0 23 0;
#X connect 3 0 26 0;
#X connect 4 0 5 0;
#X connect 6 0 3 0;
#X connect 7 0 11 0;
#X connect 8 0 15 0;
#X connect 8 1 16 0;
#X connect 10 0 17 0;
#X connect 12 0 8 0;
#X connect 13 0 10 0;
#X connect 14 0 9 0;
#X connect 14 0 9 1;
#X connect 18 0 9 0;
#X connect 19 0 9 1;
#X connect 20 0 9 0;
#X connect 20 0 9 1;
#X connect 21 0 8 0;
#X connect 23 0 24 0;
#X connect 24 0 4 0;
#X connect 25 0 7 0;
#X connect 26 0 25 0;
