#N canvas 0 25 1680 997 12;
#X declare -path ./webcam_synth_modules;
#X obj 781 781 dac~;
#X obj 666 342 r~ synth_1;
#X obj 666 51 r~ synth_1;
#X obj 744 630 r~ synth_1;
#X obj 666 536 s~ reverb_l;
#X obj 812 536 s~ reverb_r;
#X obj 666 285 s~ delay;
#X obj 672 705 r~ reverb_l;
#X obj 840 704 r~ reverb_r;
#X obj 829 630 r~ delay;
#X obj 769 343 r~ delay;
#X obj 171 190 s y_position;
#X obj 458 715 r y_position;
#X obj 458 434 r y_position;
#X obj 171 456 r y_position;
#X obj 32 753 s~ frequency;
#X obj 319 59 r~ frequency;
#X obj 319 890 s~ synth_1;
#X obj 32 85 send_range;
#X obj 32 132 get_hand_position;
#X obj 32 226 position_to_frequency;
#X obj 32 370 frequency_interpolation;
#X obj 32 495 position_to_freq_mod~;
#X obj 319 83 organ_synth~;
#X obj 319 476 position_to_filter~;
#X obj 319 764 position_to_volume~;
#X obj 666 80 delay~;
#X obj 666 376 reverb~;
#X obj 33 60 declare -path ./webcam_synth_modules;
#X connect 1 0 27 0;
#X connect 2 0 26 0;
#X connect 3 0 0 0;
#X connect 3 0 0 1;
#X connect 7 0 0 0;
#X connect 8 0 0 1;
#X connect 9 0 0 0;
#X connect 9 0 0 1;
#X connect 10 0 27 0;
#X connect 12 0 25 1;
#X connect 13 0 24 1;
#X connect 14 0 22 1;
#X connect 16 0 23 0;
#X connect 19 0 20 0;
#X connect 19 1 11 0;
#X connect 20 0 21 0;
#X connect 21 0 22 0;
#X connect 22 0 15 0;
#X connect 23 0 24 0;
#X connect 24 0 25 0;
#X connect 25 0 17 0;
#X connect 26 0 6 0;
#X connect 27 0 4 0;
#X connect 27 1 5 0;
