#N canvas 296 25 558 899 12;
#X obj 258 831 *~;
#X obj 275 673 /~;
#X obj 275 716 +~;
#X obj 318 682 expr 1 - 1 / $f1;
#X obj 276 785 *~;
#X obj 294 759 == 1;
#X obj 371 757 == 0;
#X obj 371 784 *~ 1;
#X obj 199 797 inlet~;
#X obj 258 855 outlet~;
#X obj 332 717 r \$0_bypass;
#X obj 318 655 r \$0_depth;
#X obj 169 88 hsl 128 15 0.5 5000 1 1 empty empty Speed -2 -8 0 10
-262144 -1 -1 1600 1;
#X obj 169 119 hsl 128 15 10 1 1 1 empty empty Depth -2 -8 0 10 -262144
-1 -1 10300 1;
#X obj 359 53 tgl 15 1 empty empty Bypass -38 7 0 10 -262144 -1 -1
0 1;
#X obj 60 134 s \$0_depth;
#X obj 67 103 s \$0_speed;
#X obj 389 93 s \$0_bypass;
#X obj 389 68 == 0;
#X obj 126 424 osc~;
#X obj 275 424 phasor~;
#X obj 420 424 phasor~;
#X obj 53 298 r \$0_speed;
#X obj 420 447 expr~ $v1 > 0.5;
#X obj 293 500 r \$0_waveform;
#X obj 144 538 == 0;
#X obj 293 544 == 1;
#X obj 438 545 == 2;
#X obj 420 569 *~;
#X obj 275 574 *~;
#X obj 126 567 *~;
#X obj 144 298 == 0;
#X obj 293 298 == 1;
#X obj 438 298 == 2;
#X obj 126 389 *;
#X obj 275 389 *;
#X obj 420 389 *;
#X floatatom 376 357 5 0 0 0 - - -;
#X obj 395 330 bng 15 250 50 0 empty empty empty 17 7 0 10 -262144
-1 -1;
#X floatatom 248 357 5 0 0 0 - - -;
#X obj 267 330 bng 15 250 50 0 empty empty empty 17 7 0 10 -262144
-1 -1;
#X floatatom 106 357 5 0 0 0 - - -;
#X obj 124 330 bng 15 250 50 0 empty empty empty 17 7 0 10 -262144
-1 -1;
#X obj 202 298 r \$0_speed;
#X obj 346 298 r \$0_speed;
#X obj 166 149 vradio 15 1 1 3 empty empty Waveform 0 -8 0 10 -262144
-1 -1 0;
#X text 181 162 Saw, f 8;
#X text 181 147 Sine, f 8;
#X obj 49 194 s \$0_waveform;
#X text 181 177 Square, f 8;
#X obj 293 241 r \$0_waveform;
#X obj 126 447 expr~ $v1 / 2 + 0.5;
#X obj 299 88 nbx 6 15 0 5000 0 0 empty empty Hz 48 9 0 10 -262144
-66577 -128992 1.59554 256;
#X obj 299 119 nbx 6 15 0 1 0 0 empty empty empty 65 9 0 10 -262144
-66577 -128992 0.647178 256;
#X obj 389 122 r \$0_speed;
#X obj 386 156 r \$0_depth;
#X obj 386 180 expr 1 / $f1;
#X connect 0 0 9 0;
#X connect 1 0 2 0;
#X connect 2 0 4 0;
#X connect 3 0 2 1;
#X connect 4 0 0 1;
#X connect 5 0 4 1;
#X connect 6 0 7 0;
#X connect 7 0 0 1;
#X connect 8 0 0 0;
#X connect 10 0 5 0;
#X connect 10 0 6 0;
#X connect 11 0 3 0;
#X connect 11 0 1 1;
#X connect 12 0 16 0;
#X connect 13 0 15 0;
#X connect 14 0 18 0;
#X connect 18 0 17 0;
#X connect 19 0 51 0;
#X connect 20 0 29 0;
#X connect 21 0 23 0;
#X connect 22 0 41 0;
#X connect 23 0 28 0;
#X connect 24 0 25 0;
#X connect 24 0 26 0;
#X connect 24 0 27 0;
#X connect 25 0 30 1;
#X connect 26 0 29 1;
#X connect 27 0 28 1;
#X connect 28 0 1 0;
#X connect 29 0 1 0;
#X connect 30 0 1 0;
#X connect 31 0 34 1;
#X connect 31 0 42 0;
#X connect 32 0 35 1;
#X connect 32 0 40 0;
#X connect 33 0 36 1;
#X connect 33 0 38 0;
#X connect 34 0 19 0;
#X connect 35 0 20 0;
#X connect 36 0 21 0;
#X connect 37 0 36 0;
#X connect 38 0 37 0;
#X connect 39 0 35 0;
#X connect 40 0 39 0;
#X connect 41 0 34 0;
#X connect 42 0 41 0;
#X connect 43 0 39 0;
#X connect 44 0 37 0;
#X connect 45 0 48 0;
#X connect 50 0 31 0;
#X connect 50 0 32 0;
#X connect 50 0 33 0;
#X connect 51 0 30 0;
#X connect 54 0 52 0;
#X connect 55 0 56 0;
#X connect 56 0 53 0;
#X coords 0 -1 1 1 227 149 1 150 50;
