#N canvas 2 25 656 867 12;
#X obj 251 425 delread4~ \$0-delay;
#X obj 402 812 delwrite~ \$0-delay 1000;
#X obj 251 400 line~;
#X obj 251 375 pack 0 1000;
#X obj 402 717 lop~;
#X obj 402 786 hip~;
#X obj 290 612 inlet~;
#X obj 251 707 outlet~;
#X obj 269 135 hsl 128 15 0 1000 0 1 empty empty Delay_Time -2 -8 0
10 -262144 -1 -1 3300 1;
#X obj 269 188 hsl 128 15 50 1 1 1 empty empty Feedback -2 -8 0 10
-262144 -1 -1 9000 1;
#X obj 269 218 hsl 128 15 20 20000 1 1 empty empty Low-Pass_Filter_Frequency
-2 -8 0 10 -262144 -1 -1 7200 1;
#X obj 269 249 hsl 128 15 20 20000 1 1 empty empty High-Pass_Filter_Frequency
-2 -8 0 10 -262144 -1 -1 5800 1;
#X obj 269 279 hsl 128 15 0 1 0 1 empty empty Volume -2 -8 0 10 -262144
-1 -1 5100 1;
#X obj 130 150 s \$0_delay_time;
#X obj 130 203 s \$0_feedback;
#X obj 130 233 s \$0_low_pass;
#X obj 130 264 s \$0_high_pass;
#X obj 130 294 s \$0_volume;
#X obj 507 117 r \$0_delay_time;
#X obj 507 200 r \$0_low_pass;
#X obj 507 170 r \$0_feedback;
#X obj 507 231 r \$0_high_pass;
#X obj 507 261 r \$0_volume;
#X obj 251 349 r \$0_delay_time;
#X obj 427 690 r \$0_low_pass;
#X obj 427 760 r \$0_high_pass;
#X obj 269 553 r \$0_volume;
#X obj 251 580 *~;
#X obj 402 636 /~;
#X obj 420 604 r \$0_feedback;
#X obj 399 188 nbx 6 15 0 20000 0 0 empty empty empty 0 -8 0 10 -262144
-1 -1 3.1259 256;
#X obj 267 157 tgl 15 1 empty empty Bypass_feedback 17 7 0 10 -262144
-1 -1 0 1;
#X obj 45 172 s \$0_bypass_feedback;
#X obj 420 541 r \$0_bypass_feedback;
#X obj 402 566 *~;
#X obj 201 172 == 0;
#X obj 399 279 nbx 6 15 0 1 0 0 empty empty empty 0 -8 0 10 -262144
-1 -1 0.401575 256;
#X obj 459 103 tgl 15 1 empty empty Bypass -38 7 0 10 -262144 -1 -1
0 1;
#X obj 399 135 nbx 6 15 0 1000 0 0 empty empty empty 0 -8 0 10 -262144
-1 -1 259.843 256;
#X obj 399 218 nbx 6 15 20 20000 0 0 empty empty Hz 48 9 0 10 -262144
-66577 -128992 1004.19 256;
#X obj 399 249 nbx 6 15 20 20000 0 0 empty empty Hz 48 9 0 10 -262144
-66577 -128992 468.931 256;
#X obj 506 62 == 0;
#X obj 506 89 s \$0_bypass;
#X obj 290 663 *~;
#X obj 308 636 r \$0_bypass;
#X connect 0 0 27 0;
#X connect 0 0 34 0;
#X connect 2 0 0 0;
#X connect 3 0 2 0;
#X connect 4 0 5 0;
#X connect 5 0 1 0;
#X connect 6 0 43 0;
#X connect 8 0 13 0;
#X connect 9 0 14 0;
#X connect 10 0 15 0;
#X connect 11 0 16 0;
#X connect 12 0 17 0;
#X connect 18 0 38 0;
#X connect 19 0 39 0;
#X connect 20 0 30 0;
#X connect 21 0 40 0;
#X connect 22 0 36 0;
#X connect 23 0 3 0;
#X connect 24 0 4 1;
#X connect 25 0 5 1;
#X connect 26 0 27 1;
#X connect 27 0 7 0;
#X connect 28 0 4 0;
#X connect 29 0 28 1;
#X connect 31 0 35 0;
#X connect 33 0 34 1;
#X connect 34 0 28 0;
#X connect 35 0 32 0;
#X connect 37 0 41 0;
#X connect 41 0 42 0;
#X connect 43 0 4 0;
#X connect 44 0 43 1;
#X coords 0 -1 1 1 227 200 1 250 100;
