#N canvas 455 265 437 345 12;
#X obj 156 121 inlet;
#X obj 185 264 lop~;
#X obj 125 265 sig~;
#X obj 125 215 *;
#X obj 186 215 *;
#X obj 309 53 tgl 15 1 empty empty Bypass -38 7 0 10 -262144 -1 -1
0 1;
#X obj 123 85 hsl 128 15 0.25 25 1 1 empty empty Speed -2 -8 0 10 -262144
-1 -1 6900 1;
#X obj 338 119 expr $f1 * 4;
#X obj 253 85 nbx 5 15 1 100 0 0 empty empty empty 0 -8 0 10 -262144
-1 -1 12.2071 256;
#X obj 340 68 s \$0_bypass;
#X obj 338 97 r \$0_speed;
#X obj 14 100 s \$0_speed;
#X obj 177 157 r \$0_bypass;
#X obj 211 239 r \$0_speed;
#X obj 143 191 == 1;
#X obj 204 191 == 0;
#X obj 156 304 outlet~;
#X connect 0 0 3 0;
#X connect 0 0 4 0;
#X connect 1 0 16 0;
#X connect 2 0 16 0;
#X connect 3 0 2 0;
#X connect 4 0 1 0;
#X connect 5 0 9 0;
#X connect 6 0 11 0;
#X connect 7 0 8 0;
#X connect 10 0 7 0;
#X connect 12 0 14 0;
#X connect 12 0 15 0;
#X connect 13 0 1 1;
#X connect 14 0 3 1;
#X connect 15 0 4 1;
#X coords 0 -1 1 1 227 55 1 100 50;
