#N canvas 478 98 829 924 12;
#X obj 35 837 +~;
#X floatatom 597 773 5 0 0 0 - - -;
#X obj 274 819 *~;
#X obj 108 608 osc~;
#X obj 622 801 *;
#X obj 615 749 bng 15 250 50 0 empty empty empty 17 7 0 10 -262144
-1 -1;
#X obj 274 608 phasor~;
#X obj 274 632 expr~ $v1 * 2 - 1;
#X obj 447 608 phasor~;
#X obj 447 654 expr~ $v1 * 2 - 1;
#X obj 35 813 inlet~;
#X obj 35 861 outlet~;
#X obj 162 3 cnv 15 100 60 empty empty empty 20 12 0 14 -233017 -66577
0;
#X obj 35 482 r \$0_speed;
#X obj 597 682 r \$0_depth;
#X obj 309 103 tgl 15 1 empty empty Bypass -38 7 0 10 -262144 -1 -1
0 1;
#X obj 119 138 hsl 128 15 0.1 20000 1 1 empty empty Speed -2 -8 0 10
-262144 -1 -1 4200 1;
#X obj 119 169 hsl 128 15 0.1 500 1 1 empty empty Depth -2 -8 0 10
-262144 -1 -1 6100 1;
#X obj 116 199 vradio 15 1 1 3 empty empty Waveform 0 -8 0 10 -262144
-1 -1 0;
#X text 131 212 Saw, f 8;
#X text 131 197 Sine, f 8;
#X obj 8 254 s \$0_waveform;
#X obj 338 125 s \$0_bypass;
#X obj 338 102 == 0;
#X text 131 227 Square, f 8;
#X obj 19 184 s \$0_depth;
#X obj 17 153 s \$0_speed;
#X obj 249 138 nbx 6 15 0 20000 0 0 empty empty Hz 48 9 0 10 -262144
-66577 -128992 5.66365 256;
#X obj 249 169 nbx 6 15 0 500 0 0 empty empty empty 65 9 0 10 -262144
-66577 -128992 5.97958 256;
#X obj 339 152 r \$0_speed;
#X obj 341 183 r \$0_depth;
#X obj 640 714 r \$0_bypass;
#X obj 447 631 expr~ $v1 > 0.5;
#X obj 292 684 r \$0_waveform;
#X obj 126 722 == 0;
#X obj 292 728 == 1;
#X obj 465 729 == 2;
#X obj 447 753 *~;
#X obj 274 758 *~;
#X obj 108 751 *~;
#X obj 292 340 r \$0_waveform;
#X obj 126 482 == 0;
#X obj 292 482 == 1;
#X obj 465 482 == 2;
#X obj 108 573 *;
#X obj 274 573 *;
#X obj 447 573 *;
#X floatatom 403 541 5 0 0 0 - - -;
#X obj 422 514 bng 15 250 50 0 empty empty empty 17 7 0 10 -262144
-1 -1;
#X floatatom 247 541 5 0 0 0 - - -;
#X obj 266 514 bng 15 250 50 0 empty empty empty 17 7 0 10 -262144
-1 -1;
#X floatatom 88 541 5 0 0 0 - - -;
#X obj 106 514 bng 15 250 50 0 empty empty empty 17 7 0 10 -262144
-1 -1;
#X obj 201 482 r \$0_speed;
#X obj 373 482 r \$0_speed;
#X connect 0 0 11 0;
#X connect 1 0 4 0;
#X connect 2 0 0 1;
#X connect 3 0 39 0;
#X connect 4 0 2 1;
#X connect 5 0 1 0;
#X connect 6 0 7 0;
#X connect 7 0 38 0;
#X connect 8 0 32 0;
#X connect 9 0 37 0;
#X connect 10 0 0 0;
#X connect 13 0 51 0;
#X connect 14 0 1 0;
#X connect 15 0 23 0;
#X connect 16 0 26 0;
#X connect 17 0 25 0;
#X connect 18 0 21 0;
#X connect 23 0 22 0;
#X connect 29 0 27 0;
#X connect 30 0 28 0;
#X connect 31 0 4 1;
#X connect 31 0 5 0;
#X connect 32 0 9 0;
#X connect 33 0 34 0;
#X connect 33 0 35 0;
#X connect 33 0 36 0;
#X connect 34 0 39 1;
#X connect 35 0 38 1;
#X connect 36 0 37 1;
#X connect 37 0 2 0;
#X connect 38 0 2 0;
#X connect 39 0 2 0;
#X connect 40 0 41 0;
#X connect 40 0 42 0;
#X connect 40 0 43 0;
#X connect 41 0 44 1;
#X connect 41 0 52 0;
#X connect 42 0 45 1;
#X connect 42 0 50 0;
#X connect 43 0 46 1;
#X connect 43 0 48 0;
#X connect 44 0 3 0;
#X connect 45 0 6 0;
#X connect 46 0 8 0;
#X connect 47 0 46 0;
#X connect 48 0 47 0;
#X connect 49 0 45 0;
#X connect 50 0 49 0;
#X connect 51 0 44 0;
#X connect 52 0 51 0;
#X connect 53 0 49 0;
#X connect 54 0 47 0;
#X coords 0 -1 1 1 227 149 1 100 100;
