#N canvas 690 295 386 226 12;
#X obj 39 171 unpack 0 0;
#X obj 106 141 netreceive;
#X msg 200 106 listen 0;
#X floatatom 220 68 5 0 0 0 Listen_On_Port_Number - -;
#X msg 107 106 listen \$1;
#X obj 39 199 outlet;
#X obj 106 199 outlet;
#X obj 173 199 s RECEIVE_CONNECTIONS_OPEN;
#X obj 220 2 loadbang;
#X msg 220 27 6001;
#X connect 0 0 5 0;
#X connect 0 1 6 0;
#X connect 1 0 0 0;
#X connect 1 1 7 0;
#X connect 2 0 1 0;
#X connect 3 0 2 0;
#X connect 3 0 4 0;
#X connect 4 0 1 0;
#X connect 8 0 9 0;
#X connect 9 0 3 0;
#X coords 0 -1 1 1 227 40 1 50 50;
