#N canvas 207 89 1268 905 12;
#X obj 477 193 notein;
#X obj 530 243 select 0;
#X obj 299 763 vline~;
#X obj 436 243 stripnote;
#X obj 152 842 outlet~;
#X obj 105 203 vsl 37 128 1 3000 1 1 empty empty empty 0 -9 0 10 -262144
-1 -1 6400 1;
#X obj 240 203 vsl 37 128 0 1 0 1 empty empty empty 0 -9 0 10 -262144
-1 -1 3500 1;
#X obj 150 203 vsl 37 128 0 1000 0 1 empty empty empty 0 -9 0 10 -262144
-1 -1 2500 1;
#X obj 195 203 vsl 37 128 1 3000 1 1 empty empty empty 0 -9 0 10 -262144
-1 -1 12200 1;
#X obj 285 203 vsl 37 128 0 3000 0 1 empty empty empty 0 -9 0 10 -262144
-1 -1 1700 1;
#X obj 299 582 pack f f f f f, f 29;
#X obj 320 696 pack f f;
#X msg 320 721 0 \$2;
#X obj 399 557 +;
#X msg 299 607 1 \$2 \, \$5 \$4 \$3;
#X floatatom 105 184 5 0 1 2 Attack - -;
#X floatatom 150 184 5 0 1 2 Hold - -;
#X floatatom 195 184 5 0 1 2 Decay - -;
#X floatatom 240 184 5 0 1 2 Sust. - -;
#X floatatom 285 184 5 0 1 2 Rel. - -;
#X floatatom 376 532 5 0 0 0 - - -;
#X obj 388 507 bng 15 250 50 0 empty empty empty 17 7 0 10 -262144
-1 -1;
#X obj 436 268 s \$0_note_on;
#X obj 530 268 s \$1_note_off;
#X obj 300 434 r \$0_note_on;
#X obj 320 641 r \$1_note_off;
#X obj 104 438 s \$0_attack;
#X obj 150 415 s \$0_hold;
#X obj 195 392 s \$0_decay;
#X obj 240 369 s \$0_sustain;
#X obj 285 346 s \$0_release;
#X obj 373 668 r \$0_release;
#X obj 285 121 r \$0_release;
#X obj 499 555 r \$0_sustain;
#X obj 240 98 r \$0_sustain;
#X obj 195 75 r \$0_decay;
#X obj 449 529 r \$0_decay;
#X obj 417 488 r \$0_hold;
#X obj 150 53 r \$0_hold;
#X obj 349 460 r \$0_attack;
#X obj 105 30 r \$0_attack;
#X obj 309 153 tgl 15 1 empty empty Bypass -38 7 0 10 -262144 -1 -1
0 1;
#X obj 337 168 s \$0_bypass;
#X obj 183 619 r \$0_bypass;
#X obj 121 686 == 1;
#X obj 223 692 == 0;
#X obj 98 720 *~;
#X obj 205 718 *~;
#X obj 152 591 inlet~;
#X obj 205 782 *~;
#X obj 131 720 notein;
#X obj 150 749 > 0;
#X obj 98 782 *~;
#X connect 0 0 3 0;
#X connect 0 1 3 1;
#X connect 0 1 1 0;
#X connect 1 0 23 0;
#X connect 2 0 49 1;
#X connect 3 0 22 0;
#X connect 5 0 26 0;
#X connect 6 0 29 0;
#X connect 7 0 27 0;
#X connect 8 0 28 0;
#X connect 9 0 30 0;
#X connect 10 0 14 0;
#X connect 11 0 12 0;
#X connect 12 0 2 0;
#X connect 13 0 10 2;
#X connect 14 0 2 0;
#X connect 20 0 13 0;
#X connect 21 0 20 0;
#X connect 24 0 10 0;
#X connect 25 0 11 0;
#X connect 31 0 11 1;
#X connect 32 0 19 0;
#X connect 33 0 10 4;
#X connect 34 0 18 0;
#X connect 35 0 17 0;
#X connect 36 0 10 3;
#X connect 37 0 13 1;
#X connect 37 0 21 0;
#X connect 38 0 16 0;
#X connect 39 0 10 1;
#X connect 39 0 20 0;
#X connect 40 0 15 0;
#X connect 41 0 42 0;
#X connect 43 0 44 0;
#X connect 43 0 45 0;
#X connect 44 0 46 1;
#X connect 45 0 47 1;
#X connect 46 0 52 0;
#X connect 47 0 49 0;
#X connect 48 0 46 0;
#X connect 48 0 47 0;
#X connect 49 0 4 0;
#X connect 50 1 51 0;
#X connect 51 0 52 1;
#X connect 52 0 4 0;
#X coords 0 -1 1 1 227 190 1 100 150;
