#N canvas 0 25 615 552 12;
#X obj 189 204 notein;
#X obj 189 233 stripnote;
#X obj 173 296 inlet~;
#X obj 231 514 outlet~;
#X obj 249 259 /;
#X obj 349 283 expr 1 - 1 / $f1;
#X obj 249 314 +;
#X obj 249 283 * 0.00787402;
#X obj 231 339 *~;
#X obj 219 130 hsl 128 15 10 1 1 1 empty empty Dynamic_Range -2 -8
0 10 -262144 -1 -1 12700 1;
#X obj 409 103 tgl 15 1 empty empty Bypass -38 7 0 10 -262144 -1 -1
0 1;
#X obj 191 408 == 1;
#X obj 231 441 *~;
#X obj 173 471 *~;
#X obj 249 408 == 0;
#X obj 104 118 s \$0_bypass;
#X obj 55 145 s \$0_dynamic_range;
#X obj 349 130 nbx 6 15 0 1 0 0 empty empty empty 0 -8 0 10 -262144
-1 -1 1 256;
#X obj 249 371 r \$0_bypass;
#X obj 267 233 r \$0_dynamic_range;
#X obj 449 87 r \$0_dynamic_range;
#X obj 449 111 expr 1 / $f1;
#X connect 0 0 1 0;
#X connect 0 1 1 1;
#X connect 1 1 4 0;
#X connect 2 0 8 0;
#X connect 2 0 13 0;
#X connect 4 0 7 0;
#X connect 5 0 6 1;
#X connect 6 0 8 1;
#X connect 7 0 6 0;
#X connect 8 0 12 0;
#X connect 9 0 16 0;
#X connect 10 0 15 0;
#X connect 11 0 13 1;
#X connect 12 0 3 0;
#X connect 13 0 3 0;
#X connect 14 0 12 1;
#X connect 18 0 11 0;
#X connect 18 0 14 0;
#X connect 19 0 4 1;
#X connect 19 0 5 0;
#X connect 20 0 21 0;
#X connect 21 0 17 0;
#X coords 0 -1 1 1 227 50 1 200 100;
