#N canvas 0 25 1680 997 12;
#X declare -path ./components;
#X obj 256 140 hradio 15 1 1 7 empty empty Register_(64'-1') 0 -8 0
10 -262144 -1 -1 3;
#X obj 778 185 pow;
#X msg 766 160 2;
#X floatatom 167 138 6 -12 12 2 Tune - -;
#X obj 778 93 pow;
#X msg 734 68 1.05946;
#X obj 384 155 - 3;
#X obj 166 176 vradio 15 1 1 3 empty empty Waveform 0 -8 0 10 -262144
-1 -1 0;
#X text 181 189 Saw, f 8;
#X text 181 174 Sine, f 8;
#X obj 169 405 hsl 128 15 0 1 0 1 empty empty Volume -2 -8 0 10 -262144
-1 -1 12700 1;
#X obj 359 103 tgl 15 1 empty empty Mute -26 7 0 10 -262144 -1 -1 0
1;
#X obj 385 105 == 0;
#X obj 55 157 s \$0_tune;
#X obj 796 41 r \$0_tune;
#X obj 50 221 s \$0_waveform;
#X obj 385 128 s \$0_mute;
#X obj 384 178 s \$0_register;
#X obj 796 133 r \$0_register;
#X obj 724 134 *~;
#X obj 724 227 *~;
#X obj 724 22 inlet~;
#X obj 1217 405 r \$0_mute;
#X obj 1091 453 r \$0_volume;
#X obj 1073 424 *~;
#X obj 1073 478 *~;
#X obj 1073 503 outlet~;
#X obj 299 405 nbx 6 15 0 1 0 0 empty empty empty 65 9 0 10 -262144
-66577 -128992 1 256;
#X obj 64 420 s \$0_volume;
#X obj 388 387 r \$0_volume;
#X obj 167 33 loadbang;
#X msg 167 58 0;
#X obj 10 10 declare -path ./components;
#X obj 17 568 organ_oscillators~;
#X obj 724 251 s~ \$0_frequency;
#X obj 17 463 r~ \$0_frequency;
#X text 181 204 Square, f 8;
#X obj 58 486 r \$0_waveform;
#X obj 301 240 vsl 15 128 0 1 0 1 \$0_volume_9 empty 9 0 -9 0 10 -262144
-1 -1 1300 1;
#X obj 319 240 vsl 15 128 0 1 0 1 \$0_volume_10 empty 10 0 -9 0 10
-262144 -1 -1 1500 1;
#X obj 337 240 vsl 15 128 0 1 0 1 \$0_volume_11 empty 11 0 -9 0 10
-262144 -1 -1 900 1;
#X obj 355 240 vsl 15 128 0 1 0 1 \$0_volume_12 empty 12 0 -9 0 10
-262144 -1 -1 800 1;
#X obj 265 240 vsl 15 128 0 1 0 1 \$0_volume_7 empty 7 0 -9 0 10 -262144
-1 -1 3000 1;
#X obj 283 240 vsl 15 128 0 1 0 1 \$0_volume_8 empty 8 0 -9 0 10 -262144
-1 -1 2000 1;
#X obj 247 240 vsl 15 128 0 1 0 1 \$0_volume_6 empty 6 0 -9 0 10 -262144
-1 -1 2000 1;
#X obj 229 240 vsl 15 128 0 1 0 1 \$0_volume_5 empty 5 0 -9 0 10 -262144
-1 -1 3000 1;
#X obj 211 240 vsl 15 128 0 1 0 1 \$0_volume_4 empty 4 0 -9 0 10 -262144
-1 -1 2000 1;
#X obj 193 240 vsl 15 128 0 1 0 1 \$0_volume_3 empty 3 0 -9 0 10 -262144
-1 -1 3700 1;
#X obj 175 240 vsl 15 128 0 1 0 1 \$0_volume_2 empty 2 0 -9 0 10 -262144
-1 -1 5500 1;
#X obj 175 371 tgl 15 1 \$0_mute_2 empty m 4 7 0 10 -262144 -1 -128992
0 1;
#X obj 193 371 tgl 15 1 \$0_mute_3 empty m 4 7 0 10 -262144 -1 -128992
0 1;
#X obj 211 371 tgl 15 1 \$0_mute_4 empty m 4 7 0 10 -262144 -1 -128992
0 1;
#X obj 229 371 tgl 15 1 \$0_mute_5 empty m 4 7 0 10 -262144 -1 -128992
0 1;
#X obj 247 371 tgl 15 1 \$0_mute_6 empty m 4 7 0 10 -262144 -1 -128992
0 1;
#X obj 265 371 tgl 15 1 \$0_mute_7 empty m 4 7 0 10 -262144 -1 -128992
0 1;
#X obj 283 371 tgl 15 1 \$0_mute_8 empty m 4 7 0 10 -262144 -1 -128992
0 1;
#X obj 301 371 tgl 15 1 \$0_mute_9 empty m 4 7 0 10 -262144 -1 -128992
0 1;
#X obj 319 371 tgl 15 1 \$0_mute_10 empty m 4 7 0 10 -262144 -1 -128992
0 1;
#X obj 337 371 tgl 15 1 \$0_mute_11 empty m 4 7 0 10 -262144 -1 -128992
0 1;
#X obj 355 371 tgl 15 1 \$0_mute_12 empty m 4 7 0 10 -262144 -1 -128992
0 1;
#X obj 99 509 r \$0_volume_f;
#X obj 326 516 r \$0_volume_2;
#X obj 546 510 r \$0_volume_3;
#X obj 776 509 r \$0_volume_4;
#X obj 99 680 r \$0_volume_5;
#X obj 319 681 r \$0_volume_6;
#X obj 549 680 r \$0_volume_7;
#X obj 769 684 r \$0_volume_8;
#X obj 99 853 r \$0_volume_9;
#X obj 319 849 r \$0_volume_10;
#X obj 549 852 r \$0_volume_11;
#X obj 769 849 r \$0_volume_12;
#X obj 367 542 r \$0_mute_2;
#X obj 587 537 r \$0_mute_3;
#X obj 817 541 r \$0_mute_4;
#X obj 140 711 r \$0_mute_5;
#X obj 360 712 r \$0_mute_6;
#X obj 590 710 r \$0_mute_7;
#X obj 810 707 r \$0_mute_8;
#X obj 140 879 r \$0_mute_9;
#X obj 360 870 r \$0_mute_10;
#X obj 590 876 r \$0_mute_11;
#X obj 810 876 r \$0_mute_12;
#X obj 244 568 organ_oscillators~;
#X obj 244 460 r~ \$0_frequency;
#X obj 285 486 r \$0_waveform;
#X obj 464 460 r~ \$0_frequency;
#X obj 505 486 r \$0_waveform;
#X obj 694 568 organ_oscillators~;
#X obj 694 460 r~ \$0_frequency;
#X obj 735 486 r \$0_waveform;
#X obj 17 738 organ_oscillators~;
#X obj 17 630 r~ \$0_frequency;
#X obj 58 656 r \$0_waveform;
#X obj 237 738 organ_oscillators~;
#X obj 237 630 r~ \$0_frequency;
#X obj 278 656 r \$0_waveform;
#X obj 467 738 organ_oscillators~;
#X obj 467 630 r~ \$0_frequency;
#X obj 508 656 r \$0_waveform;
#X obj 687 738 organ_oscillators~;
#X obj 687 630 r~ \$0_frequency;
#X obj 728 656 r \$0_waveform;
#X obj 17 908 organ_oscillators~;
#X obj 17 800 r~ \$0_frequency;
#X obj 58 826 r \$0_waveform;
#X obj 237 908 organ_oscillators~;
#X obj 237 800 r~ \$0_frequency;
#X obj 278 826 r \$0_waveform;
#X obj 467 908 organ_oscillators~;
#X obj 467 800 r~ \$0_frequency;
#X obj 508 826 r \$0_waveform;
#X obj 687 908 organ_oscillators~;
#X obj 687 800 r~ \$0_frequency;
#X obj 728 826 r \$0_waveform;
#X obj 17 592 s~ \$0_osc_f;
#X obj 244 592 s~ \$0_osc_2;
#X obj 464 592 s~ \$0_osc_3;
#X obj 694 592 s~ \$0_osc_4;
#X obj 17 762 s~ \$0_osc_5;
#X obj 237 762 s~ \$0_osc_6;
#X obj 467 762 s~ \$0_osc_7;
#X obj 687 762 s~ \$0_osc_8;
#X obj 17 932 s~ \$0_osc_9;
#X obj 237 932 s~ \$0_osc_10;
#X obj 467 932 s~ \$0_osc_11;
#X obj 687 932 s~ \$0_osc_12;
#X obj 501 296 r~ \$0_osc_f;
#X obj 591 296 r~ \$0_osc_2;
#X obj 691 296 r~ \$0_osc_3;
#X obj 791 296 r~ \$0_osc_4;
#X obj 891 296 r~ \$0_osc_5;
#X obj 991 296 r~ \$0_osc_6;
#X obj 1081 296 r~ \$0_osc_7;
#X obj 1181 296 r~ \$0_osc_8;
#X obj 1281 296 r~ \$0_osc_9;
#X obj 1381 296 r~ \$0_osc_10;
#X obj 1481 296 r~ \$0_osc_11;
#X obj 1576 296 r~ \$0_osc_12;
#X obj 244 485 *~ 2;
#X obj 464 485 *~ 3;
#X obj 694 485 *~ 4;
#X obj 17 655 *~ 5;
#X obj 237 655 *~ 6;
#X obj 467 655 *~ 7;
#X obj 687 655 *~ 8;
#X obj 17 825 *~ 9;
#X obj 237 825 *~ 10;
#X obj 467 825 *~ 11;
#X obj 687 825 *~ 12;
#X obj 140 531 r \$0_mute_f;
#X obj 157 240 vsl 15 128 0 1 0 1 \$0_volume_f empty f 0 -9 0 10 -262144
-1 -1 12700 1;
#X obj 157 371 tgl 15 1 \$0_mute_f empty m 4 7 0 10 -262144 -1 -128992
0 1;
#X obj 464 568 organ_oscillators~;
#X connect 0 0 6 0;
#X connect 1 0 20 1;
#X connect 2 0 1 0;
#X connect 3 0 13 0;
#X connect 4 0 19 1;
#X connect 5 0 4 0;
#X connect 6 0 17 0;
#X connect 7 0 15 0;
#X connect 10 0 28 0;
#X connect 11 0 12 0;
#X connect 12 0 16 0;
#X connect 14 0 4 1;
#X connect 14 0 5 0;
#X connect 18 0 1 1;
#X connect 18 0 2 0;
#X connect 19 0 20 0;
#X connect 20 0 34 0;
#X connect 21 0 19 0;
#X connect 22 0 24 1;
#X connect 23 0 25 1;
#X connect 24 0 25 0;
#X connect 25 0 26 0;
#X connect 29 0 27 0;
#X connect 30 0 31 0;
#X connect 31 0 3 0;
#X connect 33 0 115 0;
#X connect 35 0 33 0;
#X connect 37 0 33 1;
#X connect 60 0 33 2;
#X connect 61 0 83 2;
#X connect 62 0 153 2;
#X connect 63 0 88 2;
#X connect 64 0 91 2;
#X connect 65 0 94 2;
#X connect 66 0 97 2;
#X connect 67 0 100 2;
#X connect 68 0 103 2;
#X connect 69 0 106 2;
#X connect 70 0 109 2;
#X connect 71 0 112 2;
#X connect 72 0 83 3;
#X connect 73 0 153 3;
#X connect 74 0 88 3;
#X connect 75 0 91 3;
#X connect 76 0 94 3;
#X connect 77 0 97 3;
#X connect 78 0 100 3;
#X connect 79 0 103 3;
#X connect 80 0 106 3;
#X connect 81 0 109 3;
#X connect 82 0 112 3;
#X connect 83 0 116 0;
#X connect 84 0 139 0;
#X connect 85 0 83 1;
#X connect 86 0 140 0;
#X connect 87 0 153 1;
#X connect 88 0 118 0;
#X connect 89 0 141 0;
#X connect 90 0 88 1;
#X connect 91 0 119 0;
#X connect 92 0 142 0;
#X connect 93 0 91 1;
#X connect 94 0 120 0;
#X connect 95 0 143 0;
#X connect 96 0 94 1;
#X connect 97 0 121 0;
#X connect 98 0 144 0;
#X connect 99 0 97 1;
#X connect 100 0 122 0;
#X connect 101 0 145 0;
#X connect 102 0 100 1;
#X connect 103 0 123 0;
#X connect 104 0 146 0;
#X connect 105 0 103 1;
#X connect 106 0 124 0;
#X connect 107 0 147 0;
#X connect 108 0 106 1;
#X connect 109 0 125 0;
#X connect 110 0 148 0;
#X connect 111 0 109 1;
#X connect 112 0 126 0;
#X connect 113 0 149 0;
#X connect 114 0 112 1;
#X connect 127 0 24 0;
#X connect 128 0 24 0;
#X connect 129 0 24 0;
#X connect 130 0 24 0;
#X connect 131 0 24 0;
#X connect 132 0 24 0;
#X connect 133 0 24 0;
#X connect 134 0 24 0;
#X connect 135 0 24 0;
#X connect 136 0 24 0;
#X connect 137 0 24 0;
#X connect 138 0 24 0;
#X connect 139 0 83 0;
#X connect 140 0 153 0;
#X connect 141 0 88 0;
#X connect 142 0 91 0;
#X connect 143 0 94 0;
#X connect 144 0 97 0;
#X connect 145 0 100 0;
#X connect 146 0 103 0;
#X connect 147 0 106 0;
#X connect 148 0 109 0;
#X connect 149 0 112 0;
#X connect 150 0 33 3;
#X connect 153 0 117 0;
#X coords 0 -1 1 1 227 325 1 150 100;
