#N canvas 18 25 1680 997 12;
#X obj 723 396 phasor~;
#X obj 723 420 expr~ $v1 * 2 - 1;
#X obj 583 354 osc~;
#X obj 884 317 phasor~;
#X obj 884 340 expr~ $v1 > $v2;
#X obj 884 363 expr~ $v1 * 2 - 1;
#X obj 1159 115 osc~;
#X obj 1159 200 +~ 0.5;
#X obj 1159 173 /~;
#X obj 902 406 == 2;
#X obj 1004 275 == 0;
#X obj 1177 275 == 1;
#X obj 1159 300 *~;
#X obj 986 300 *~;
#X obj 256 140 hradio 15 1 1 7 empty empty Register_(64'-1') 0 -8 0
10 -262144 -1 -1 3;
#X obj 778 185 pow;
#X msg 766 160 2;
#X floatatom 167 138 6 -12 12 2 Tune - -;
#X obj 778 93 pow;
#X msg 734 68 1.05946;
#X obj 384 155 - 3;
#X obj 166 176 vradio 15 1 1 3 empty empty Waveform 0 -8 0 10 -262144
-1 -1 1;
#X obj 257 184 vradio 15 1 1 2 empty empty Pulse 0 -8 0 10 -262144
-1 -1 0;
#X text 272 183 Fixed Width, f 12;
#X text 181 204 Pulse, f 8;
#X text 181 189 Saw, f 8;
#X obj 169 241 hsl 128 15 0 1 0 1 empty empty Fixed_Pulse_Width -2
-8 0 10 -262144 -1 -1 6350 1;
#X obj 169 272 hsl 128 15 0.1 100 1 1 empty empty PWM_Speed -2 -8 0
10 -262144 -1 -1 3200 1;
#X text 272 198 PWM, f 12;
#X obj 169 304 hsl 128 15 100 2 1 1 empty empty PWM_Depth -2 -8 0 10
-262144 -1 -1 12400 1;
#X text 181 174 Sine, f 8;
#X obj 169 336 hsl 128 15 0 1 0 1 empty empty Volume -2 -8 0 10 -262144
-1 -1 12700 1;
#X obj 359 103 tgl 15 1 empty empty Mute -26 7 0 10 -262144 -1 -1 0
1;
#X obj 385 105 == 0;
#X obj 723 480 *~;
#X obj 583 411 *~;
#X obj 884 431 *~;
#X obj 741 454 == 1;
#X obj 601 386 == 0;
#X obj 55 157 s \$0_tune;
#X obj 796 41 r \$0_tune;
#X obj 50 221 s \$0_waveform;
#X obj -12 253 s \$0_fixed_pulse_width;
#X obj 43 284 s \$0_pwm_speed;
#X obj 42 316 s \$0_pwm_depth;
#X obj 385 128 s \$0_mute;
#X obj 384 178 s \$0_register;
#X obj 383 207 s \$0_pulse_type;
#X obj 796 133 r \$0_register;
#X obj 741 307 r \$0_waveform;
#X obj 986 203 r \$0_fixed_pulse_width;
#X obj 1043 238 r \$0_pulse_type;
#X obj 1159 90 r \$0_pwm_speed;
#X obj 1177 147 r \$0_pwm_depth;
#X obj 724 134 *~;
#X obj 724 227 *~;
#X obj 724 22 inlet~;
#X obj 807 506 r \$0_mute;
#X obj 741 554 r \$0_volume;
#X obj 723 525 *~;
#X obj 723 579 *~;
#X obj 723 604 outlet~;
#X obj 299 272 nbx 6 15 0 20000 0 0 empty empty Hz 49 9 0 10 -262144
-66577 -128992 0.57004 256;
#X obj 299 304 nbx 6 15 0 1 0 0 empty empty empty 65 9 0 10 -262144
-66577 -128992 0.911731 256;
#X obj 299 241 nbx 6 15 0 1 0 0 empty empty empty 65 9 0 10 -262144
-66577 -128992 0.496063 256;
#X obj 299 336 nbx 6 15 0 1 0 0 empty empty empty 65 9 0 10 -262144
-66577 -128992 1 256;
#X obj 64 348 s \$0_volume;
#X obj 387 240 r \$0_fixed_pulse_width;
#X obj 388 271 r \$0_pwm_speed;
#X obj 387 296 r \$0_pwm_depth;
#X obj 388 351 r \$0_volume;
#X obj 387 320 expr 2 / $f1;
#X obj 167 33 loadbang;
#X msg 167 58 0;
#X connect 0 0 1 0;
#X connect 1 0 34 0;
#X connect 2 0 35 0;
#X connect 3 0 4 0;
#X connect 4 0 5 0;
#X connect 5 0 36 0;
#X connect 6 0 8 0;
#X connect 7 0 12 0;
#X connect 8 0 7 0;
#X connect 9 0 36 1;
#X connect 10 0 13 1;
#X connect 11 0 12 1;
#X connect 12 0 4 1;
#X connect 13 0 4 1;
#X connect 14 0 20 0;
#X connect 15 0 55 1;
#X connect 16 0 15 0;
#X connect 17 0 39 0;
#X connect 18 0 54 1;
#X connect 19 0 18 0;
#X connect 20 0 46 0;
#X connect 21 0 41 0;
#X connect 22 0 47 0;
#X connect 26 0 42 0;
#X connect 27 0 43 0;
#X connect 29 0 44 0;
#X connect 31 0 66 0;
#X connect 32 0 33 0;
#X connect 33 0 45 0;
#X connect 34 0 59 0;
#X connect 35 0 59 0;
#X connect 36 0 59 0;
#X connect 37 0 34 1;
#X connect 38 0 35 1;
#X connect 40 0 18 1;
#X connect 40 0 19 0;
#X connect 48 0 15 1;
#X connect 48 0 16 0;
#X connect 49 0 9 0;
#X connect 49 0 37 0;
#X connect 49 0 38 0;
#X connect 50 0 13 0;
#X connect 51 0 10 0;
#X connect 51 0 11 0;
#X connect 52 0 6 0;
#X connect 53 0 8 1;
#X connect 54 0 55 0;
#X connect 55 0 2 0;
#X connect 55 0 0 0;
#X connect 55 0 3 0;
#X connect 56 0 54 0;
#X connect 57 0 59 1;
#X connect 58 0 60 1;
#X connect 59 0 60 0;
#X connect 60 0 61 0;
#X connect 67 0 64 0;
#X connect 68 0 62 0;
#X connect 69 0 71 0;
#X connect 70 0 65 0;
#X connect 71 0 63 0;
#X connect 72 0 73 0;
#X connect 73 0 17 0;
#X coords 0 -1 1 1 227 256 1 150 100;
