#N canvas 78 69 1048 805 12;
#X obj 119 131 hsl 128 15 0 1 0 1 empty empty -Inf_Gain_Position_on_Screen
-2 -8 0 10 -262144 -1 -1 2600 1;
#X obj 119 161 hsl 128 15 0 1 0 1 empty empty Unity-Gain_Position_on_Screen
-2 -8 0 10 -262144 -1 -1 10800 1;
#X obj 148 585 expr $f1 - $f2;
#X floatatom 148 560 5 0 0 0 - - -;
#X obj 196 545 bng 15 250 50 0 empty empty empty 17 7 0 10 -262144
-1 -1;
#X obj 11 553 inlet~;
#X obj 12 754 outlet~;
#X obj 130 469 -;
#X obj 130 612 /;
#X floatatom 130 430 5 0 0 0 - - -;
#X obj 174 415 bng 15 250 50 0 empty empty empty 17 7 0 10 -262144
-1 -1;
#X obj 52 706 *~;
#X obj 130 385 inlet;
#X obj 130 636 clip 0 1;
#X obj 130 687 lop~;
#X obj 119 191 hsl 128 15 1 100 1 1 empty empty Interpolation_Speed
-2 -8 0 10 -262144 -1 -1 3800 1;
#X floatatom 130 735 5 0 0 0 - - -;
#X obj 131 711 env~;
#X obj -28 665 *~;
#X obj 36 578 r \$0_bypass;
#X obj -10 640 == 1;
#X obj 70 640 == 0;
#X obj 52 665 *~;
#X obj 310 105 tgl 15 1 empty empty Bypass -38 7 0 10 -262144 -1 -1
0 1;
#X obj 335 118 s \$0_bypass;
#X obj 249 131 nbx 6 15 0 100 0 0 empty empty % 50 8 0 10 -262144 -1
-128992 20.4724 256;
#X obj 249 191 nbx 6 15 10 1000 0 0 empty empty ms 48 8 0 10 -262144
-1 -128992 252.101 256;
#X obj 249 161 nbx 6 15 0 100 0 0 empty empty % 50 8 0 10 -262144 -1
-128992 85.0394 256;
#X obj 357 155 * 100;
#X obj 335 203 * 100;
#X floatatom 336 282 8 0 0 0 - - -;
#X obj 336 259 expr 1 / $f1 * 1000;
#X obj -77 206 s \$0_interpolation_speed;
#X obj -77 176 s \$0_unity_gain_position;
#X obj 378 203 r \$0_unity_gain_position;
#X obj -140 146 s \$0_minus_infinity_gain_position;
#X obj 401 155 r \$0_minus_infinity_gain_position;
#X obj 336 235 r \$0_interpolation_speed;
#X obj 209 396 r \$0_minus_infinity_gain_position;
#X obj 243 526 r \$0_minus_infinity_gain_position;
#X obj 148 500 r \$0_unity_gain_position;
#X obj 155 663 r \$0_interpolation_speed;
#X text -20 284 Left inlet takes signal from oscillator Right inlet
takes position, f 40;
#X connect 0 0 35 0;
#X connect 1 0 33 0;
#X connect 2 0 8 1;
#X connect 3 0 2 0;
#X connect 4 0 3 0;
#X connect 5 0 22 0;
#X connect 5 0 18 0;
#X connect 7 0 8 0;
#X connect 8 0 13 0;
#X connect 9 0 7 0;
#X connect 10 0 9 0;
#X connect 11 0 6 0;
#X connect 12 0 9 0;
#X connect 13 0 14 0;
#X connect 14 0 11 1;
#X connect 14 0 17 0;
#X connect 15 0 32 0;
#X connect 17 0 16 0;
#X connect 18 0 6 0;
#X connect 19 0 20 0;
#X connect 19 0 21 0;
#X connect 20 0 18 1;
#X connect 21 0 22 1;
#X connect 22 0 11 0;
#X connect 23 0 24 0;
#X connect 28 0 25 0;
#X connect 29 0 27 0;
#X connect 30 0 26 0;
#X connect 31 0 30 0;
#X connect 34 0 29 0;
#X connect 36 0 28 0;
#X connect 37 0 31 0;
#X connect 38 0 7 1;
#X connect 38 0 10 0;
#X connect 39 0 2 1;
#X connect 39 0 4 0;
#X connect 40 0 3 0;
#X connect 41 0 14 1;
#X coords 0 -1 1 1 227 112 1 100 100;
