#N canvas 215 25 1465 968 12;
#X obj 35 957 +~;
#X obj 274 939 *~;
#X obj 108 728 osc~;
#X obj 274 728 phasor~;
#X obj 274 752 expr~ $v1 * 2 - 1;
#X obj 447 728 phasor~;
#X obj 447 774 expr~ $v1 * 2 - 1;
#X obj 35 933 inlet~;
#X obj 35 981 outlet~;
#X obj 35 602 r \$0_speed;
#X obj 309 106 tgl 15 1 empty empty Bypass -38 7 0 10 -262144 -1 -1
0 1;
#X obj 119 138 hsl 128 15 0.1 20000 1 1 empty empty Speed -2 -8 0 10
-262144 -1 -1 4200 1;
#X obj 119 169 hsl 128 15 0.1 500 1 1 empty empty Max_Depth -2 -8 0
10 -262144 -1 -1 6900 1;
#X obj 116 199 vradio 15 1 1 3 empty empty Waveform 0 -8 0 10 -262144
-1 -1 0;
#X text 131 212 Saw, f 8;
#X text 131 197 Sine, f 8;
#X obj -3 244 s \$0_waveform;
#X obj 338 125 s \$0_bypass;
#X obj 338 102 == 0;
#X text 131 227 Square, f 8;
#X obj 17 153 s \$0_speed;
#X obj 249 138 nbx 6 15 0 20000 0 0 empty empty Hz 48 9 0 10 -262144
-66577 -128992 5.66365 256;
#X obj 249 169 nbx 6 15 0 500 0 0 empty empty empty 65 9 0 10 -262144
-66577 -128992 10.2253 256;
#X obj 339 152 r \$0_speed;
#X obj 447 751 expr~ $v1 > 0.5;
#X obj 292 804 r \$0_waveform;
#X obj 126 842 == 0;
#X obj 292 848 == 1;
#X obj 465 849 == 2;
#X obj 447 873 *~;
#X obj 274 878 *~;
#X obj 108 871 *~;
#X obj 292 460 r \$0_waveform;
#X obj 126 602 == 0;
#X obj 292 602 == 1;
#X obj 465 602 == 2;
#X obj 108 693 *;
#X obj 274 693 *;
#X obj 447 693 *;
#X floatatom 403 661 5 0 0 0 - - -;
#X obj 422 634 bng 15 250 50 0 empty empty empty 17 7 0 10 -262144
-1 -1;
#X floatatom 247 661 5 0 0 0 - - -;
#X obj 266 634 bng 15 250 50 0 empty empty empty 17 7 0 10 -262144
-1 -1;
#X floatatom 88 661 5 0 0 0 - - -;
#X obj 106 634 bng 15 250 50 0 empty empty empty 17 7 0 10 -262144
-1 -1;
#X obj 201 602 r \$0_speed;
#X obj 373 602 r \$0_speed;
#X obj 119 260 hsl 128 15 0 1 0 1 empty empty Zero-Depth_Position_on_Screen
-2 -8 0 10 -262144 -1 -1 3700 1;
#X obj 119 290 hsl 128 15 0 1 0 1 empty empty Max-Depth_Position_on_Screen
-2 -8 0 10 -262144 -1 -1 11500 1;
#X obj 640 760 expr $f1 - $f2;
#X floatatom 640 735 5 0 0 0 - - -;
#X obj 688 720 bng 15 250 50 0 empty empty empty 17 7 0 10 -262144
-1 -1;
#X obj 622 644 -;
#X obj 622 787 /;
#X floatatom 622 605 5 0 0 0 - - -;
#X obj 666 590 bng 15 250 50 0 empty empty empty 17 7 0 10 -262144
-1 -1;
#X obj 622 480 inlet;
#X obj 622 811 clip 0 1;
#X obj 622 862 lop~;
#X obj 119 320 hsl 128 15 1 100 1 1 empty empty Interpolation_Speed
-2 -8 0 10 -262144 -1 -1 3800 1;
#X obj 249 260 nbx 6 15 0 100 0 0 empty empty % 50 8 0 10 -262144 -1
-128992 29.1339 256;
#X obj 249 320 nbx 6 15 10 1000 0 0 empty empty ms 48 8 0 10 -262144
-1 -128992 252.101 256;
#X obj 249 290 nbx 6 15 0 100 0 0 empty empty % 50 8 0 10 -262144 -1
-128992 90.5512 256;
#X obj 337 284 * 100;
#X obj 335 332 * 100;
#X floatatom 336 411 8 0 0 0 - - -;
#X obj 336 388 expr 1 / $f1 * 1000;
#X obj -70 335 s \$0_interpolation_speed;
#X obj 336 364 r \$0_interpolation_speed;
#X obj 647 838 r \$0_interpolation_speed;
#X text -20 413 Left inlet takes signal from oscillator Right inlet
takes position, f 40;
#X obj 622 921 *~;
#X obj -70 275 s \$0_zero_depth_position;
#X obj 381 284 r \$0_zero_depth_position;
#X obj -67 305 s \$0_max_depth_position;
#X obj 378 332 r \$0_max_depth_position;
#X obj 701 571 r \$0_zero_depth_position;
#X obj 640 675 r \$0_max_depth_position;
#X obj 734 701 r \$0_zero_depth_position;
#X obj 341 183 r \$0_max_depth;
#X obj 640 895 r \$0_max_depth;
#X obj 693 495 r \$0_bypass;
#X obj 622 579 *;
#X floatatom 622 534 5 0 0 0 - - -;
#X obj 651 513 bng 15 250 50 0 empty empty empty 17 7 0 10 -262144
-1 -1;
#X obj -11 184 s \$0_max_depth;
#X connect 0 0 8 0;
#X connect 1 0 0 1;
#X connect 2 0 31 0;
#X connect 3 0 4 0;
#X connect 4 0 30 0;
#X connect 5 0 24 0;
#X connect 6 0 29 0;
#X connect 7 0 0 0;
#X connect 9 0 43 0;
#X connect 10 0 18 0;
#X connect 11 0 20 0;
#X connect 12 0 85 0;
#X connect 13 0 16 0;
#X connect 18 0 17 0;
#X connect 23 0 21 0;
#X connect 24 0 6 0;
#X connect 25 0 26 0;
#X connect 25 0 27 0;
#X connect 25 0 28 0;
#X connect 26 0 31 1;
#X connect 27 0 30 1;
#X connect 28 0 29 1;
#X connect 29 0 1 0;
#X connect 30 0 1 0;
#X connect 31 0 1 0;
#X connect 32 0 33 0;
#X connect 32 0 34 0;
#X connect 32 0 35 0;
#X connect 33 0 36 1;
#X connect 33 0 44 0;
#X connect 34 0 37 1;
#X connect 34 0 42 0;
#X connect 35 0 38 1;
#X connect 35 0 40 0;
#X connect 36 0 2 0;
#X connect 37 0 3 0;
#X connect 38 0 5 0;
#X connect 39 0 38 0;
#X connect 40 0 39 0;
#X connect 41 0 37 0;
#X connect 42 0 41 0;
#X connect 43 0 36 0;
#X connect 44 0 43 0;
#X connect 45 0 41 0;
#X connect 46 0 39 0;
#X connect 47 0 72 0;
#X connect 48 0 74 0;
#X connect 49 0 53 1;
#X connect 50 0 49 0;
#X connect 51 0 50 0;
#X connect 52 0 53 0;
#X connect 53 0 57 0;
#X connect 54 0 52 0;
#X connect 55 0 54 0;
#X connect 56 0 83 0;
#X connect 57 0 58 0;
#X connect 58 0 71 0;
#X connect 59 0 67 0;
#X connect 63 0 60 0;
#X connect 64 0 62 0;
#X connect 65 0 61 0;
#X connect 66 0 65 0;
#X connect 68 0 66 0;
#X connect 69 0 58 1;
#X connect 71 0 1 1;
#X connect 73 0 63 0;
#X connect 75 0 64 0;
#X connect 76 0 52 1;
#X connect 76 0 55 0;
#X connect 77 0 50 0;
#X connect 78 0 49 1;
#X connect 78 0 51 0;
#X connect 79 0 22 0;
#X connect 80 0 71 1;
#X connect 81 0 82 1;
#X connect 81 0 84 0;
#X connect 82 0 54 0;
#X connect 83 0 82 0;
#X connect 84 0 83 0;
#X coords 0 -1 1 1 227 241 1 100 100;
