#N canvas 88 25 1206 683 12;
#X obj 824 477 inlet~;
#X obj 929 604 bob~;
#X obj 929 642 outlet~;
#X obj 864 583 *~;
#X obj 787 581 *~;
#X obj 844 504 r \$0_bypass;
#X obj 269 201 hsl 128 15 0 1 0 1 empty empty Low_Frequency_Position_on_Screen
-2 -8 0 10 -262144 -1 -1 0 1;
#X obj 269 233 hsl 128 15 0 1 0 1 empty empty High_Frequency_Position_on_Screen
-2 -8 0 10 -262144 -1 -1 12700 1;
#X obj 269 294 hsl 128 15 1 100 1 1 empty empty Interpolation_Speed
-2 -8 0 10 -262144 -1 -1 4000 1;
#X obj 460 105 tgl 15 1 empty empty Bypass -38 7 0 10 -262144 -1 -1
0 1;
#X obj 485 87 s \$0_bypass;
#X obj 399 201 nbx 6 15 0 100 0 0 empty empty % 50 8 0 10 -262144 -1
-128992 0 256;
#X obj 399 294 nbx 6 15 10 1000 0 0 empty empty ms 48 8 0 10 -262144
-1 -128992 234.465 256;
#X obj 399 233 nbx 6 15 0 100 0 0 empty empty % 50 8 0 10 -262144 -1
-128992 100 256;
#X obj 507 185 * 100;
#X obj 485 227 * 100;
#X floatatom 486 336 8 0 0 0 - - -;
#X obj 486 313 expr 1 / $f1 * 1000;
#X obj 73 309 s \$0_interpolation_speed;
#X obj 486 289 r \$0_interpolation_speed;
#X obj 269 138 hsl 128 15 1 20000 1 1 empty empty Low_Frequency -2
-8 0 10 -262144 -1 -1 0 1;
#X obj 269 169 hsl 128 15 1 20000 1 1 empty empty High_Frequency -2
-8 0 10 -262144 -1 -1 11600 1;
#X obj 399 138 nbx 6 15 0 20000 0 0 empty empty Hz 48 9 0 10 -262144
-66577 -128992 1 256;
#X obj 399 169 nbx 6 15 0 20000 0 0 empty empty Hz 48 9 0 10 -262144
-66577 -128992 8482.03 256;
#X obj 85 153 s \$0_low_frequency;
#X obj 489 115 r \$0_low_frequency;
#X obj 488 146 r \$0_high_frequency;
#X obj 97 184 s \$0_high_frequency;
#X obj 269 263 hsl 128 15 0.08 8 1 1 empty empty Resonance -2 -8 0
10 -262144 -1 -1 8600 1;
#X obj 399 263 nbx 6 15 0 8 0 0 empty empty empty 48 9 0 10 -262144
-66577 -128992 1.80893 256;
#X obj 488 257 r \$0_resonance;
#X obj 131 278 s \$0_resonance;
#X obj 54 216 s \$0_low_frequency_position;
#X obj 551 185 r \$0_low_frequency_position;
#X obj 528 227 r \$0_high_frequency_position;
#X obj 975 246 expr $f1 - $f2;
#X floatatom 975 221 5 0 0 0 - - -;
#X obj 1023 206 bng 15 250 50 0 empty empty empty 17 7 0 10 -262144
-1 -1;
#X obj 957 130 -;
#X obj 957 273 /;
#X floatatom 957 91 5 0 0 0 - - -;
#X obj 1001 76 bng 15 250 50 0 empty empty empty 17 7 0 10 -262144
-1 -1;
#X obj 957 49 inlet;
#X obj 941 528 lop~;
#X obj 966 504 r \$0_interpolation_speed;
#X obj 805 555 == 1;
#X obj 882 557 == 0;
#X obj 1036 57 r \$0_low_frequency_position;
#X obj 975 161 r \$0_high_frequency_position;
#X obj 1070 187 r \$0_low_frequency_position;
#X obj 941 478 +;
#X obj 959 401 r \$0_low_frequency;
#X floatatom 906 448 5 0 0 0 - - -;
#X floatatom 776 278 5 0 0 0 - - -;
#X obj 799 303 -;
#X obj 939 369 *;
#X obj 791 258 bng 15 250 50 0 empty empty empty 17 7 0 10 -262144
-1 -1;
#X floatatom 799 350 5 0 0 0 - - -;
#X obj 825 331 bng 15 250 50 0 empty empty empty 17 7 0 10 -262144
-1 -1;
#X obj 939 428 bng 15 250 50 0 empty empty empty 17 7 0 10 -262144
-1 -1;
#X obj 776 203 r \$0_high_frequency;
#X obj 817 232 r \$0_low_frequency;
#X obj 43 248 s \$0_high_frequency_position;
#X obj 957 312 clip 0 1;
#X obj 954 576 r \$0_resonance;
#X text 227 424 Left inlet takes signal from oscillator Right inlet
takes position, f 40;
#X connect 0 0 3 0;
#X connect 0 0 4 0;
#X connect 1 0 2 0;
#X connect 3 0 1 0;
#X connect 4 0 2 0;
#X connect 5 0 45 0;
#X connect 5 0 46 0;
#X connect 6 0 32 0;
#X connect 7 0 62 0;
#X connect 8 0 18 0;
#X connect 9 0 10 0;
#X connect 14 0 11 0;
#X connect 15 0 13 0;
#X connect 16 0 12 0;
#X connect 17 0 16 0;
#X connect 19 0 17 0;
#X connect 20 0 24 0;
#X connect 21 0 27 0;
#X connect 25 0 22 0;
#X connect 26 0 23 0;
#X connect 28 0 31 0;
#X connect 30 0 29 0;
#X connect 33 0 14 0;
#X connect 34 0 15 0;
#X connect 35 0 39 1;
#X connect 36 0 35 0;
#X connect 37 0 36 0;
#X connect 38 0 39 0;
#X connect 39 0 63 0;
#X connect 40 0 38 0;
#X connect 41 0 40 0;
#X connect 42 0 40 0;
#X connect 43 0 1 1;
#X connect 44 0 43 1;
#X connect 45 0 4 1;
#X connect 46 0 3 1;
#X connect 47 0 38 1;
#X connect 47 0 41 0;
#X connect 48 0 36 0;
#X connect 49 0 35 1;
#X connect 49 0 37 0;
#X connect 50 0 43 0;
#X connect 51 0 50 1;
#X connect 51 0 59 0;
#X connect 52 0 50 0;
#X connect 53 0 54 0;
#X connect 54 0 57 0;
#X connect 55 0 52 0;
#X connect 56 0 53 0;
#X connect 57 0 55 0;
#X connect 58 0 57 0;
#X connect 59 0 52 0;
#X connect 60 0 53 0;
#X connect 61 0 54 1;
#X connect 61 0 56 0;
#X connect 63 0 55 1;
#X connect 63 0 58 0;
#X connect 64 0 1 2;
#X coords 0 -1 1 1 227 214 1 250 100;
