#N canvas 751 398 352 197 12;
#X msg 173 124 disconnect;
#X obj 173 170 netsend -u;
#X msg 14 124 connect localhost \$1;
#X obj 270 124 r RANGE;
#X obj 173 3 loadbang;
#X floatatom 173 68 5 0 0 0 Send_On_Port_Number - -;
#X msg 173 28 6000;
#X connect 0 0 1 0;
#X connect 2 0 1 0;
#X connect 3 0 1 0;
#X connect 4 0 6 0;
#X connect 5 0 0 0;
#X connect 5 0 2 0;
#X connect 6 0 5 0;
#X coords 0 -1 1 1 227 40 1 10 50;
